<svg version="1.1" id="Layer_1" xmlns="http://www.w3.org/2000/svg" xmlns:xlink="http://www.w3.org/1999/xlink" x="0px" y="0px"
	 width="100%" viewBox="0 0 50 110" enable-background="new 0 0 50 110" xml:space="preserve">
<path fill="#000000" opacity="1.000000" stroke="none" 
	d="
M24.000088,111.000000 
	C16.011845,111.000000 8.523579,111.000000 1.017657,111.000000 
	C1.017657,74.402481 1.017657,37.804955 1.017657,1.103714 
	C17.570869,1.103714 34.142601,1.103714 50.857170,1.103714 
	C50.857170,37.666214 50.857170,74.333061 50.857170,111.000000 
	C42.139065,111.000000 33.319565,111.000000 24.000088,111.000000 
M28.498800,6.000000 
	C21.068108,6.000000 13.637417,6.000000 6.276760,6.000000 
	C6.276760,39.636173 6.276760,72.699120 6.276760,105.721527 
	C12.960960,105.721527 19.365126,105.721527 26.159063,105.721527 
	C26.159063,92.374367 26.159063,79.301086 26.159063,65.840294 
	C32.959141,65.840294 39.370140,65.840294 45.719318,65.840294 
	C45.719318,59.033714 45.719318,52.630081 45.719318,45.833611 
	C39.034069,45.833611 32.624054,45.833611 26.284025,45.833611 
	C26.284025,39.027336 26.284025,32.622601 26.284025,25.826927 
	C32.971760,25.826927 39.381596,25.826927 45.712585,25.826927 
	C45.712585,19.020329 45.712585,12.615256 45.712585,6.000000 
	C40.117298,6.000000 34.807751,6.000000 28.498800,6.000000 
z"/>
<path fill="#FFFFFF" opacity="1.000000" stroke="none" 
	d="
M28.998505,6.000000 
	C34.807751,6.000000 40.117298,6.000000 45.712585,6.000000 
	C45.712585,12.615256 45.712585,19.020329 45.712585,25.826927 
	C39.381596,25.826927 32.971760,25.826927 26.284025,25.826927 
	C26.284025,32.622601 26.284025,39.027336 26.284025,45.833611 
	C32.624054,45.833611 39.034069,45.833611 45.719318,45.833611 
	C45.719318,52.630081 45.719318,59.033714 45.719318,65.840294 
	C39.370140,65.840294 32.959141,65.840294 26.159063,65.840294 
	C26.159063,79.301086 26.159063,92.374367 26.159063,105.721527 
	C19.365126,105.721527 12.960960,105.721527 6.276760,105.721527 
	C6.276760,72.699120 6.276760,39.636173 6.276760,6.000000 
	C13.637417,6.000000 21.068108,6.000000 28.998505,6.000000 
z"/>
</svg>